<svg width="80" height="80" viewBox="0 0 80 80" fill="none" xmlns="http://www.w3.org/2000/svg">
<path d="M40.0001 29.0334C40.0001 27.5013 39.6983 25.9842 39.112 24.5687C38.5257 23.1533 37.6663 21.8671 36.583 20.7838C35.4996 19.7004 34.2135 18.8411 32.7981 18.2548C31.3826 17.6685 29.8655 17.3667 28.3334 17.3667H15.8334C14.0653 17.3667 12.3696 18.0691 11.1194 19.3193C9.86913 20.5696 9.16675 22.2653 9.16675 24.0334V53.78C9.16675 55.5481 9.86913 57.2438 11.1194 58.4941C12.3696 59.7443 14.0653 60.4467 15.8334 60.4467H28.8901C31.6593 60.4466 34.3598 61.3087 36.6167 62.9134L40.0001 65.3167M40.0001 29.0334V65.3167M40.0001 29.0334C40.0001 25.9392 41.2292 22.9717 43.4172 20.7838C45.6051 18.5959 48.5726 17.3667 51.6668 17.3667H64.1668C65.9349 17.3667 67.6306 18.0691 68.8808 19.3193C70.131 20.5696 70.8334 22.2653 70.8334 24.0334V53.78C70.8334 55.5481 70.131 57.2438 68.8808 58.4941C67.6306 59.7443 65.9349 60.4467 64.1668 60.4467H51.1067C48.3387 60.4473 45.6394 61.3094 43.3834 62.9134L40.0001 65.3167" stroke="#E9E9FF" stroke-width="2" stroke-linecap="round" stroke-linejoin="round"/>
</svg>
