<svg width="80" height="80" viewBox="0 0 80 80" fill="none" xmlns="http://www.w3.org/2000/svg">
<path d="M39.9999 52.5V44.5466C39.9999 35.19 35.5266 26.9933 28.8199 22.4466M39.9999 52.5C26.8399 52.5 16.1699 40.6666 16.1699 26.0666V18.6633H16.6666C21.1199 18.6633 25.2799 20.0466 28.8199 22.4466M39.9999 52.5V41.9966C39.999 38.0143 41.0173 34.098 42.9579 30.6205C44.8985 27.143 47.6969 24.2201 51.0866 22.13M39.9999 52.5C53.1599 52.5 63.8299 41.8333 63.8299 28.67V18.6633H63.3333C58.8399 18.6633 54.6466 19.93 51.0866 22.13M28.8199 22.4466C29.357 20.5291 30.38 18.7828 31.7899 17.3766L39.9999 9.16663L48.2099 17.3766C49.5376 18.7063 50.5245 20.337 51.0866 22.13M39.9999 49.1666V70.8333M39.9999 70.8333C44.535 70.8333 48.9901 69.6412 52.9175 67.3735C56.8448 65.1059 60.106 61.8443 62.3733 57.9166M39.9999 70.8333C35.4649 70.8333 31.0098 69.6412 27.0824 67.3735C23.155 65.1059 19.8938 61.8443 17.6266 57.9166" stroke="#E9E9FF" stroke-width="2" stroke-linecap="round" stroke-linejoin="round"/>
</svg>
