<svg width="80" height="80" viewBox="0 0 80 80" fill="none" xmlns="http://www.w3.org/2000/svg">
<path d="M61.3666 30.5333C61.3683 33.7519 60.6417 36.929 59.2413 39.8269C57.8408 42.7248 55.8028 45.2682 53.28 47.2667C49.5069 50.2726 44.824 51.9065 40 51.9C34.98 51.9 30.3666 50.1667 26.72 47.2733C23.8861 45.025 21.6695 42.094 20.2778 38.755C18.8861 35.416 18.365 31.7783 18.7632 28.1829C19.1614 24.5874 20.4659 21.1519 22.5545 18.1984C24.6431 15.2448 27.4474 12.8699 30.7045 11.2961C33.9617 9.72241 37.5651 9.00139 41.177 9.20066C44.7889 9.39994 48.2911 10.513 51.3554 12.4355C54.4197 14.358 56.9457 17.027 58.6967 20.1924C60.4477 23.3578 61.3664 26.9159 61.3666 30.5333Z" stroke="#E9E9FF" stroke-width="2" stroke-linecap="round" stroke-linejoin="round"/>
<path d="M53.28 47.2667V70.8334L40 60.8901L26.72 70.8334V47.2667" stroke="#E9E9FF" stroke-width="2" stroke-linecap="round" stroke-linejoin="round"/>
<path id="fill" d="M38.1833 22.4667C38.78 21.4434 39.0766 20.93 39.4666 20.7567C39.6348 20.6833 39.8164 20.6454 40 20.6454C40.1835 20.6454 40.3651 20.6833 40.5333 20.7567C40.9233 20.93 41.22 21.4434 41.8166 22.4667L43.4433 25.26C43.5485 25.4588 43.6736 25.6464 43.8166 25.82C43.9166 25.9245 44.0344 26.0089 44.17 26.0734C44.3788 26.1561 44.5954 26.2175 44.8166 26.2567L47.9733 26.94C49.1333 27.19 49.7133 27.3167 49.9966 27.6334C50.2466 27.91 50.3633 28.2767 50.33 28.6467C50.2833 29.07 49.8866 29.5134 49.0966 30.3967L46.9433 32.8067C46.7868 32.9688 46.6472 33.1464 46.5266 33.3367C46.4602 33.4652 46.4152 33.6037 46.3933 33.7467C46.3794 33.9715 46.3883 34.1971 46.42 34.42L46.7466 37.6334C46.8666 38.8167 46.9266 39.4067 46.7133 39.7734C46.6199 39.932 46.4947 40.0696 46.3455 40.1774C46.1964 40.2853 46.0265 40.3611 45.8466 40.4C45.4333 40.49 44.89 40.25 43.8066 39.7734L40.85 38.47C40.6473 38.371 40.4351 38.2928 40.2166 38.2367C40.0731 38.2131 39.9268 38.2131 39.7833 38.2367C39.5648 38.2928 39.3526 38.371 39.15 38.47L36.1966 39.77C35.11 40.25 34.5633 40.49 34.15 40.4034C33.9704 40.3636 33.801 40.2871 33.6524 40.1787C33.5038 40.0702 33.3793 39.9322 33.2866 39.7734C33.0733 39.4067 33.1333 38.8167 33.2533 37.6334L33.58 34.42C33.6133 34.08 33.63 33.91 33.6066 33.7467C33.5847 33.6037 33.5397 33.4652 33.4733 33.3367C33.3527 33.1464 33.2131 32.9688 33.0566 32.8067L30.9 30.4C30.1066 29.5167 29.7133 29.0734 29.6666 28.65C29.6494 28.4673 29.6702 28.2829 29.7275 28.1086C29.7849 27.9342 29.8776 27.7736 30 27.6367C30.2833 27.32 30.8633 27.1934 32.0233 26.9434L35.18 26.26C35.5133 26.1867 35.68 26.15 35.8266 26.0767C35.9575 26.0122 36.0768 25.9266 36.18 25.8234C36.323 25.6498 36.4481 25.4622 36.5533 25.2634L38.1833 22.4667Z" fill="#E9E9FF"/>
</svg>
