<svg width="80" height="80" viewBox="0 0 80 80" fill="none" xmlns="http://www.w3.org/2000/svg">
<path d="M22.89 18.4767C21.6823 17.7811 20.2481 17.5927 18.9016 17.9526C17.5552 18.3124 16.4063 19.1913 15.7067 20.3967C15.3606 20.9931 15.1358 21.652 15.0451 22.3356C14.9545 23.0191 14.9999 23.7138 15.1786 24.3798C15.3573 25.0458 15.6659 25.6699 16.0866 26.2162C16.5073 26.7626 17.0318 27.2204 17.63 27.5634L26.3967 32.6134C26.9034 32.9059 27.3242 33.3267 27.6167 33.8334C27.9093 34.3401 28.0633 34.9149 28.0633 35.5V47.2867C28.0633 47.8718 27.9093 48.4466 27.6167 48.9534L19.59 62.8267C19.2439 63.4231 19.0191 64.082 18.9285 64.7656C18.8379 65.4491 18.8832 66.1438 19.0619 66.8098C19.2407 67.4758 19.5493 68.0999 19.9699 68.6462C20.3906 69.1926 20.9151 69.6504 21.5133 69.9934C22.7214 70.69 24.1564 70.879 25.5036 70.5191C26.8508 70.1592 28.0003 69.2796 28.7 68.0734L39.56 49.31H40.42L51.28 68.0734C51.9797 69.2796 53.1292 70.1592 54.4764 70.5191C55.8236 70.879 57.2586 70.69 58.4667 69.9934C59.0649 69.6504 59.5894 69.1926 60.0101 68.6462C60.4308 68.0999 60.7393 67.4758 60.9181 66.8098C61.0968 66.1438 61.1421 65.4491 61.0515 64.7656C60.9609 64.082 60.7361 63.4231 60.39 62.8267L52.3833 48.9934C52.0884 48.485 51.9332 47.9077 51.9333 47.32V35.5C51.9337 34.9146 52.0882 34.3396 52.3814 33.8328C52.6745 33.3261 53.096 32.9055 53.6033 32.6134L62.37 27.5667C62.9682 27.2237 63.4927 26.7659 63.9134 26.2196C64.3341 25.6732 64.6427 25.0491 64.8214 24.3832C65.0001 23.7172 65.0455 23.0225 64.9549 22.3389C64.8642 21.6553 64.6394 20.9964 64.2933 20.4C63.5942 19.1941 62.4456 18.3145 61.0991 17.954C59.7526 17.5935 58.3181 17.7814 57.11 18.4767L44.99 25.4567C43.4722 26.3307 41.7515 26.7907 40 26.7907C38.2486 26.7907 36.5278 26.3307 35.01 25.4567L22.89 18.4767Z" stroke="#E9E9FF" stroke-width="2" stroke-linecap="round" stroke-linejoin="round"/>
<path d="M48.7433 18.0467C48.7433 20.3656 47.8221 22.5895 46.1824 24.2291C44.5427 25.8688 42.3188 26.79 39.9999 26.79C37.681 26.79 35.4571 25.8688 33.8175 24.2291C32.1778 22.5895 31.2566 20.3656 31.2566 18.0467C31.2566 15.7278 32.1778 13.5039 33.8175 11.8642C35.4571 10.2245 37.681 9.30334 39.9999 9.30334C42.3188 9.30334 44.5427 10.2245 46.1824 11.8642C47.8221 13.5039 48.7433 15.7278 48.7433 18.0467Z" stroke="#E9E9FF" stroke-width="2" stroke-linecap="round" stroke-linejoin="round"/>
</svg>
