<svg width="80" height="80" viewBox="0 0 80 80" fill="none" xmlns="http://www.w3.org/2000/svg">
<path d="M35.6571 14.4689C36.0996 13.7177 36.7335 13.0944 37.4955 12.6612C38.2576 12.228 39.1211 12 40 12C40.8789 12 41.7424 12.228 42.5045 12.6612C43.2665 13.0944 43.9004 13.7177 44.3429 14.4689L50.4351 24.8116C50.7858 25.4085 51.2583 25.9267 51.8225 26.3331C52.3868 26.7394 53.0304 27.0251 53.7124 27.1719L65.5415 29.7045C66.4001 29.8892 67.1947 30.2933 67.8462 30.8765C68.4977 31.4597 68.9833 32.2017 69.2545 33.0285C69.5257 33.8552 69.5732 34.7379 69.3921 35.5884C69.2109 36.439 68.8076 37.2277 68.2223 37.8759L60.1631 46.8032C59.6982 47.3178 59.3467 47.9225 59.1309 48.5788C58.9151 49.2351 58.8398 49.9287 58.9098 50.6154L60.1262 62.5261C60.2149 63.3913 60.0726 64.2643 59.7136 65.0581C59.3546 65.8519 58.7915 66.5387 58.0804 67.0499C57.3693 67.5612 56.5351 67.879 55.661 67.9717C54.787 68.0644 53.9036 67.9287 53.0991 67.5781L42.0274 62.7515C41.3886 62.473 40.6981 62.3291 40 62.3291C39.3019 62.3291 38.6114 62.473 37.9726 62.7515L26.9009 67.5781C26.0964 67.9287 25.213 68.0644 24.339 67.9717C23.4649 67.879 22.6307 67.5612 21.9196 67.0499C21.2085 66.5387 20.6454 65.8519 20.2864 65.0581C19.9274 64.2643 19.7851 63.3913 19.8738 62.5261L21.0902 50.6154C21.1606 49.9289 21.0859 49.2355 20.8707 48.5792C20.6555 47.9229 20.3046 47.318 19.8403 46.8032L11.7777 37.8759C11.1924 37.2277 10.7891 36.439 10.6079 35.5884C10.4268 34.7379 10.4743 33.8552 10.7455 33.0285C11.0167 32.2017 11.5023 31.4597 12.1538 30.8765C12.8053 30.2933 13.5999 29.8892 14.4585 29.7045L26.2876 27.1719C26.9699 27.0259 27.614 26.7409 28.1788 26.3351C28.7437 25.9293 29.2169 25.4116 29.5683 24.8149L35.6571 14.4689Z" stroke="#E9E9FF" stroke-width="2" stroke-linecap="round" stroke-linejoin="round"/>
</svg>
